<?xml version="1.0" standalone="no"?>
<!DOCTYPE svg PUBLIC "-//W3C//DTD SVG 20010904//EN"
 "http://www.w3.org/TR/2001/REC-SVG-20010904/DTD/svg10.dtd">
<svg version="1.0" xmlns="http://www.w3.org/2000/svg"
 width="512.000000pt" height="512.000000pt" viewBox="0 0 512.000000 512.000000"
 preserveAspectRatio="xMidYMid meet">

<g transform="translate(0.000000,512.000000) scale(0.100000,-0.100000)"
fill="#000000" stroke="none">
<path d="M135 4976 c-168 -78 -179 -303 -21 -401 l49 -30 278 -3 c254 -3 278
-5 294 -22 13 -14 57 -296 196 -1247 132 -902 186 -1249 205 -1308 64 -203
246 -370 456 -420 94 -22 2558 -22 2663 0 216 45 408 224 472 438 22 73 393
1937 393 1972 0 37 -33 111 -63 143 -12 13 -40 34 -62 45 l-40 22 -1845 5
-1845 5 -22 150 c-36 242 -52 316 -85 385 -41 86 -150 195 -233 234 -103 48
-164 56 -465 56 -268 0 -276 -1 -325 -24z"/>
<path d="M1765 1308 c-236 -30 -446 -220 -501 -454 -22 -93 -14 -245 16 -333
82 -232 304 -391 547 -391 161 0 288 54 408 175 128 127 175 239 175 413 0
113 -19 195 -66 281 -46 84 -85 131 -153 184 -128 101 -275 144 -426 125z"/>
<path d="M3810 1309 c-234 -25 -436 -196 -503 -426 -42 -141 -27 -294 41 -433
46 -94 159 -211 249 -258 231 -121 504 -84 693 95 75 71 121 142 157 245 38
104 37 248 0 363 -90 275 -352 445 -637 414z"/>
</g>
</svg>
